<?xml version="1.0" standalone="no"?>
<!DOCTYPE svg PUBLIC "-//W3C//DTD SVG 20010904//EN"
 "http://www.w3.org/TR/2001/REC-SVG-20010904/DTD/svg10.dtd">
<svg version="1.0" xmlns="http://www.w3.org/2000/svg"
 width="225.000000pt" height="225.000000pt" viewBox="0 0 225.000000 225.000000"
 preserveAspectRatio="xMidYMid meet">

<g transform="translate(0.000000,225.000000) scale(0.100000,-0.100000)"
fill="#000000" stroke="none">
<path d="M951 2109 c-291 -51 -562 -248 -697 -505 -88 -167 -119 -307 -111
-503 7 -166 29 -258 97 -396 123 -249 360 -445 625 -516 102 -27 313 -37 423
-19 183 29 365 120 506 252 154 143 244 304 297 528 22 90 17 318 -9 417 -93
359 -359 631 -709 724 -89 24 -330 35 -422 18z m-83 -478 c20 -11 86 -69 147
-130 l109 -110 126 124 c136 133 156 144 242 132 45 -6 81 -28 112 -70 27 -36
34 -133 13 -173 -9 -17 -68 -82 -132 -146 l-117 -115 112 -109 c125 -121 152
-164 152 -236 0 -121 -137 -206 -245 -152 -18 9 -85 68 -150 132 l-117 117
-123 -122 c-67 -67 -135 -127 -150 -133 -76 -28 -175 7 -214 76 -25 42 -30
105 -12 151 5 15 65 83 132 150 l121 123 -126 128 c-135 136 -148 159 -135
239 19 114 151 178 255 124z"/>
</g>
</svg>
